<svg width="71" height="31" viewBox="0 0 71 31" fill="none" xmlns="http://www.w3.org/2000/svg">
<path fill-rule="evenodd" clip-rule="evenodd" d="M58.0995 6.12708C60.4988 6.09045 73.1602 6.45959 69.9113 20.0791C67.6425 29.6584 59.6388 29.4291 54.0882 29.2701C53.5 29.2533 52.9394 29.2372 52.4161 29.2336C51.5215 29.2336 50.6269 29.6901 49.7471 30.1389C48.5945 30.7269 47.4673 31.302 46.3991 30.8202C43.5207 29.5283 38.4263 27.4982 35.2155 27.6094C32.0047 27.4982 26.9104 29.5283 24.032 30.8202C22.9637 31.302 21.8365 30.7269 20.6838 30.1389C19.8041 29.6901 18.9095 29.2336 18.0148 29.2336C17.5017 29.2371 16.9527 29.2522 16.377 29.2682C10.8251 29.4219 2.79315 29.644 0.519592 20.0791C-2.69127 6.45959 9.9321 6.09045 12.3314 6.12708H13.4009C16.5017 5.97925 29.6421 5.13098 33.9236 0.553711C34.5885 -0.18457 35.7692 -0.18457 36.4708 0.553711C40.789 5.1676 53.9292 5.97925 57.0301 6.12708H58.0995ZM54.7788 17.274C54.7788 15.0961 52.0837 13.325 49.2419 13.325C46.3991 13.325 43.7051 15.0961 43.7051 17.274C43.7051 19.452 46.3991 21.2231 49.2419 21.2231C52.0836 21.2231 54.7788 19.452 54.7788 17.274ZM21.189 13.325C24.032 13.325 26.7258 15.0961 26.7258 17.274C26.7258 19.452 24.032 21.2231 21.189 21.2231C18.3473 21.2231 15.6523 19.452 15.6523 17.274C15.6523 15.0961 18.3473 13.325 21.189 13.325Z" fill="black"/>
</svg>
