<svg width="45" height="45" viewBox="0 0 45 45" fill="none" xmlns="http://www.w3.org/2000/svg">
<path d="M0.234912 1.43903C-0.078304 1.75225 -0.078304 2.25994 0.234912 2.57316C0.548128 2.88637 1.05582 2.88637 1.36904 2.57316L2.80807 1.13412L1.67395 0L0.234912 1.43903Z" transform="translate(25.6161 5.6709)" fill="black"/>
<path d="M2.57316 1.36904C2.88637 1.05582 2.88637 0.548128 2.57316 0.234912C2.25994 -0.078304 1.75225 -0.078304 1.43903 0.234912L0 1.67395L1.13412 2.80807L2.57316 1.36904Z" transform="translate(28.4243 2.86279)" fill="black"/>
<path d="M2.57316 1.43903L1.13412 0L0 1.13412L1.43903 2.57316C1.75225 2.88637 2.25994 2.88637 2.57316 2.57316C2.88637 2.25994 2.88637 1.75225 2.57316 1.43903Z" transform="translate(28.4243 5.6709)" fill="black"/>
<path d="M1.36904 0.234912C1.05582 -0.078304 0.548128 -0.078304 0.234912 0.234912C-0.078304 0.548128 -0.078304 1.05582 0.234912 1.36904L1.67395 2.80807L2.80807 1.67395L1.36904 0.234912Z" transform="translate(25.6161 2.86279)" fill="black"/>
<path fill-rule="evenodd" clip-rule="evenodd" d="M5.44768 21.0635L0.548616 16.1645C-0.182872 15.433 -0.182872 14.247 0.548616 13.5156L13.5156 0.548616C14.247 -0.182872 15.433 -0.182872 16.1645 0.548616L21.0635 5.44768C21.795 6.17917 21.795 7.36509 21.0635 8.09658L8.09658 21.0635C7.36509 21.795 6.17917 21.795 5.44768 21.0635Z" transform="translate(1.07587 22.2074)" stroke="black" stroke-width="2" stroke-linecap="round" stroke-linejoin="round"/>
<path fill-rule="evenodd" clip-rule="evenodd" d="M6.33517 5.48604L5.62127 6.2058L4.99093 6.83028L4.65768 6.49703L0.33325 2.1726L0 1.83935L0.630341 1.21487L1.34424 0.495111C2.00439 -0.165037 3.06913 -0.165037 3.72927 0.495111L6.33468 3.10052C6.99532 3.76116 6.99532 4.82589 6.33517 5.48604Z" transform="translate(17.1939 20.8707)" stroke="black" stroke-width="2" stroke-linecap="round" stroke-linejoin="round"/>
<path d="M10.9787 0L0 10.9787" transform="translate(2.85242 28.4164)" stroke="black" stroke-width="2" stroke-linecap="round" stroke-linejoin="round"/>
<path d="M10.9787 0L0 10.9787" transform="translate(5.50037 31.0643)" stroke="black" stroke-width="2" stroke-linecap="round" stroke-linejoin="round"/>
<path d="M1.5866 1.58611L0 0" transform="translate(41.9286 1.38013)" stroke="black" stroke-width="2" stroke-linecap="round" stroke-linejoin="round"/>
<path d="M14.2516 0L2.45637 11.7947L0 14.2516L2.06986 16.3214L4.52624 13.8646L16.3214 2.06986" transform="translate(21.1914 7.38257)" stroke="black" stroke-width="2" stroke-linecap="round" stroke-linejoin="round"/>
<path d="M2.25457 8.31268L4.93034 8.49983L8.49983 2.06693L6.43241 0L0 3.569L0.187148 6.24526" transform="translate(35.2559 1.13977)" stroke="black" stroke-width="2" stroke-linecap="round" stroke-linejoin="round"/>
<path d="M5.61492 5.61492L0 0" transform="translate(12.2098 16.4712)" stroke="black" stroke-width="2" stroke-linecap="round" stroke-linejoin="round"/>
<path d="M5.60906 5.60906L0 0" transform="translate(22.8152 27.0765)" stroke="black" stroke-width="2" stroke-linecap="round" stroke-linejoin="round"/>
<path d="M7.07839 7.07839L0 0" transform="translate(25.7177 21.2472)" stroke="black" stroke-width="2" stroke-linecap="round" stroke-linejoin="round"/>
<path d="M7.0779 7.0779L0 0" transform="translate(16.5699 12.0994)" stroke="black" stroke-width="2" stroke-linecap="round" stroke-linejoin="round"/>
<path d="M10.9397 9.82843C8.06943 10.9938 4.65435 10.4138 2.326 8.08498C0.138372 5.89735 -0.50614 2.75249 0.392463 0" transform="translate(1.27063 6.64038)" stroke="black" stroke-width="2" stroke-linecap="round" stroke-linejoin="round"/>
<path d="M0 0.393535C2.74956 -0.50751 5.89735 0.139444 8.08498 2.32707C10.4109 4.65298 10.9938 8.06513 9.82843 10.9359" transform="translate(6.74438 1.16638)" stroke="black" stroke-width="2" stroke-linecap="round" stroke-linejoin="round"/>
<path d="M0.583469 0C-0.581929 2.87025 -0.0019176 6.28533 2.32692 8.61368C4.51455 10.8013 7.65941 11.4458 10.4119 10.5472" transform="translate(27.8427 32.6852)" stroke="black" stroke-width="2" stroke-linecap="round" stroke-linejoin="round"/>
<path d="M0 0.582925C2.87025 -0.582473 6.2824 -1.78814e-05 8.6088 2.32638C10.7964 4.514 11.4434 7.66131 10.5423 10.4114" transform="translate(32.7936 27.7401)" stroke="black" stroke-width="2" stroke-linecap="round" stroke-linejoin="round"/>
<path d="M5.08084 0L8.44413 3.36328C9.38377 4.30293 9.38377 5.82308 8.44657 6.7598L6.7598 8.44657C5.82259 9.38377 4.30293 9.38377 3.36328 8.44413L0 5.08084" transform="translate(1.66357 1.55994)" stroke="black" stroke-width="2" stroke-linecap="round" stroke-linejoin="round"/>
<path d="M4.06833 9.14917L0.705041 5.78588C-0.234606 4.84623 -0.234606 3.32609 0.702598 2.38937L2.38937 0.702598C3.32658 -0.234606 4.84623 -0.234606 5.78588 0.705041L9.14917 4.06833" transform="translate(34.1863 34.0826)" stroke="black" stroke-width="2" stroke-linecap="round" stroke-linejoin="round"/>
<path d="M0 0.54825C0.731 -0.18275 1.91692 -0.18275 2.64792 0.54825C3.37892 1.27925 3.37892 2.46517 2.64792 3.19617" transform="translate(13.8311 27.8682)" stroke="black" stroke-width="2" stroke-linecap="round" stroke-linejoin="round"/>
</svg>
