<svg width="57" height="57" viewBox="0 0 57 57" fill="none" xmlns="http://www.w3.org/2000/svg">
<path fill-rule="evenodd" clip-rule="evenodd" d="M0 0H45V1H0V0Z" transform="translate(0 56)" fill="black"/>
<path fill-rule="evenodd" clip-rule="evenodd" d="M0 31.2952L34.3001 44L44.8561 14.6971L44.8062 14.7006C44.9337 14.3568 45 13.9941 45 13.6285C45 12.3576 44.2153 11.2223 43.0391 10.7912L43.0334 10.8044L14.2965 0.194291L14.301 0.17992C13.9764 0.0603567 13.6336 0 13.2891 0C12.0364 0 10.9174 0.796133 10.4908 1.98947L10.5061 1.99522L0 31.2952Z" transform="translate(12)" fill="black"/>
<path fill-rule="evenodd" clip-rule="evenodd" d="M6.84205 7.84242L5.39626 7.59848L6.07107 3.6062L7.51686 3.84784L6.84205 7.84242ZM30.1597 12.0344L30.884 8.03747L29.4382 7.79468L28.7156 11.7893L30.1597 12.0344ZM11.6597 8.71929L11.8053 7.79472L11.4195 7.21132L11.9009 4.62805L25.0541 7.01456L24.6206 9.5495L24.0891 9.98676L23.898 10.863L19.9964 9.5495C19.9464 9.49887 19.9464 9.49887 19.8986 9.45169L19.1276 8.13474C19.032 7.98976 18.9364 7.89195 18.7896 7.89195L17.4428 7.64801H17.3928C17.2983 7.64801 17.2494 7.64801 17.1538 7.69634L15.8536 8.71871C15.8536 8.76934 15.8036 8.76934 15.7558 8.76934L11.6597 8.71929ZM11.4195 10.1329L11.2261 11.2542L10.6969 11.6926L10.2144 14.2253C10.1666 14.5659 9.87645 14.8593 9.49182 14.8593C9.44289 14.8593 9.39509 14.8593 9.3473 14.8098L6.45571 14.3231C6.06994 14.2253 5.83097 13.933 5.83097 13.5435V13.4457L6.5513 9.25663L5.10892 9.01269L4.38574 13.1546C4.33681 13.5435 4.0489 13.7863 3.66313 13.7863H3.51975L0.62816 13.2512C0.24125 13.2017 0 12.9106 0 12.5205V12.3744L1.68704 2.82607L0.385772 2.58097L0.868272 0L37 6.42999L36.5198 9.05929L35.2674 8.8165L33.5821 18.3643C33.532 18.7566 33.1941 19 32.8578 19H32.7144L29.824 18.4649C29.4382 18.4143 29.1981 18.0737 29.1981 17.7325V17.5875L29.9207 13.4457L28.4749 13.1546L27.7523 17.3436C27.7045 17.6831 27.3665 17.9765 27.0297 17.9765H26.884L23.9924 17.4391C23.6089 17.3919 23.3665 17.0502 23.3665 16.7096V16.5611L23.8012 14.0296L23.4633 13.4451L23.6556 12.2766L19.5128 12.2283C19.5128 12.2283 19.465 12.2283 19.4161 12.2766L18.1148 13.299C18.067 13.3473 17.9726 13.3473 17.9236 13.3473H17.828L16.5268 13.1033C16.3822 13.1033 16.2366 13.0055 16.1899 12.91L15.3711 11.5448C15.3711 11.4964 15.3222 11.4964 15.3222 11.4964L11.4195 10.1329Z" transform="translate(7 37)" fill="black"/>
</svg>
