<svg width="61" height="50" viewBox="0 0 61 50" fill="none" xmlns="http://www.w3.org/2000/svg">
<path d="M27.2657 0C26.9098 0 26.6556 0.253341 26.6056 0.557349L22.6397 26.4487L19.7415 17.4298C19.5381 16.8218 18.6729 16.7711 18.4187 17.3792L15.673 24.574H0.724544C-0.241515 24.574 -0.241515 25.9429 0.724544 25.9429H16.1306C16.4357 25.9429 16.6899 25.7394 16.7916 25.4861L19.0288 19.6592L22.232 29.591C22.4863 30.3004 23.4515 30.199 23.5549 29.4897L27.1649 5.82683C27.5708 9.47494 28.2326 15.6058 29.3512 25.2834C30.063 31.3644 30.7749 37.4944 31.3342 42.0039C31.6384 44.2839 31.8935 46.1595 32.096 47.476C32.1977 48.1347 32.2494 48.6414 32.3511 48.9961C32.4019 49.1987 32.4019 49.3001 32.4519 49.4521C32.4519 49.5036 32.5036 49.5534 32.5536 49.7054C32.6053 49.7569 32.6553 49.8583 32.8587 49.9596C33.1129 50.0601 33.5197 49.9596 33.6214 49.8067C33.8239 49.6547 33.7739 49.5534 33.8239 49.5036C33.8239 49.4521 33.8756 49.4022 33.8756 49.3507C33.9264 49.2494 33.9264 49.0974 33.9773 48.9462C34.0281 48.5916 34.1298 48.1355 34.2315 47.5782C34.4349 46.4128 34.6891 44.8421 34.9933 42.9159C35.5526 39.1673 36.3162 34.1503 37.0271 29.1848C38.1457 21.3819 38.7559 16.6698 39.2135 13.6804L41.0439 24.8274C41.1456 25.182 41.3998 25.4362 41.7557 25.4362H60.3142C61.2286 25.4362 61.2286 24.0673 60.3142 24.0673H42.315L39.8236 9.1211C39.6711 8.36108 38.5525 8.36108 38.4508 9.1211C38.4508 9.1211 37.078 19.0014 35.6543 28.983C34.9425 33.9485 34.2307 38.9646 33.6214 42.7149C33.468 43.8803 33.3163 44.6394 33.2146 45.5515C33.0112 44.4376 32.8587 43.3727 32.7062 41.8527C32.0952 37.3432 31.3833 31.2124 30.6723 25.1322C29.2995 12.8705 27.9267 0.608862 27.9267 0.608862C27.9267 0.25334 27.6216 0 27.2657 0Z" fill="black"/>
</svg>
